<svg xmlns="http://www.w3.org/2000/svg" viewBox="0 0 64 64">
    <defs>
        <linearGradient id="glow" x1="8" y1="8" x2="56" y2="56" gradientUnits="userSpaceOnUse">
            <stop stop-color="#73e8dc" />
            <stop offset="1" stop-color="#9b8cff" />
        </linearGradient>
    </defs>
    <rect width="64" height="64" rx="16" fill="#0b1020" />
    <path d="M32 13c-11 0-19 8-19 19s8 19 19 19 19-8 19-19S43 13 32 13Zm0 8c6.2 0 11 4.8 11 11s-4.8 11-11 11-11-4.8-11-11 4.8-11 11-11Z" fill="url(#glow)" />
    <circle cx="27" cy="31" r="2.5" fill="#d9fff8" />
    <circle cx="37" cy="31" r="2.5" fill="#d9fff8" />
    <path d="m32 35 3 4h-6l3-4Z" fill="#73e8dc" />
</svg>
